#!OML:ASF I:\Actors\actors\Patient Classification 1\Patient 1\Session 1\Subject1.ASF
:FULLY-SPECIFIED
:DEGREES
806
root -0.366424 17.5692 7.93219 5.27585 -5.6425 -7.8168
lowerback -1.4001 2.3371 5.12382
upperback -10.5342 3.53445 2.01392
thorax -10.2556 1.38572 -0.95431
lowerneck -13.7523 -2.90351 1.7535
upperneck 28.0043 -6.31732 5.37784
head 11.5522 -2.00841 0.800098
rclavicle -1.77415e-014 8.74653e-015
rhumerus 23.1813 53.3688 -45.6266
rradius 109.356
rwrist -14.9712
rhand 18.6635 -41.4688
rfingers 7.12502
rthumb 43.288 -785.612
lclavicle -1.77415e-014 8.74653e-015
lhumerus -33.1738 -43.3876 94.5595
lradius 100.668
lwrist 44.3709
lhand -44.225 -2.23058
lfingers 7.12502
lthumb -17.0378 27.0423
rfemur 1.12926 25.9479 24.0122
rtibia 1.14459
rfoot -12.4359 -19.8294
rtoes -3.92724
lfemur 11.0855 -40.112 -17.5186
ltibia -4.33991
lfoot -18.551 50.6252
ltoes 9.59288
807
root -0.372954 17.5669 7.9412 5.10776 -5.30136 -7.88322
lowerback -1.54752 2.33661 5.07305
upperback -10.4266 3.50886 1.92817
thorax -10.0414 1.38068 -1.00821
lowerneck -13.8077 -3.09421 1.29303
upperneck 28.2561 -6.66137 5.92142
head 11.7107 -2.13369 1.03096
rclavicle -5.86415e-015 2.04748e-014
rhumerus 23.0569 56.6855 -43.6455
rradius 111.09
rwrist -15.4299
rhand 22.9538 -39.1497
rfingers 7.12502
rthumb 47.2762 -781.693
lclavicle -5.86415e-015 2.04748e-014
lhumerus -32.0996 -43.573 93.9945
lradius 100.495
lwrist 44.3928
lhand -44.379 -2.28043
lfingers 7.12502
lthumb -17.1861 26.9795
rfemur 1.39844 25.8826 24.2556
rtibia 1.20146
rfoot -12.6866 -20.023
rtoes -3.36406
lfemur 11.2067 -40.0653 -17.4517
ltibia -4.34804
lfoot -18.1098 50.3215
ltoes 9.13456
808
root -0.37906 17.5644 7.94934 4.90306 -4.94395 -7.90332
lowerback -1.61229 2.32606 4.9134
upperback -10.3294 3.47636 1.88561
thorax -9.89726 1.38197 -0.959369
lowerneck -13.9337 -3.32022 0.872079
upperneck 28.5489 -6.98689 6.1739
head 11.8882 -2.28004 1.14964
rclavicle -5.96354e-015 -1.47101e-014
rhumerus 23.3257 60.3502 -41.208
rradius 112.027
rwrist -15.5919
rhand 27.8893 -37.6617
rfingers 7.12502
rthumb 51.7997 -777.886
lclavicle -5.96354e-015 -1.47101e-014
lhumerus -31.1255 -43.5941 93.5486
lradius 100.382
lwrist 44.2718
lhand -44.6051 -2.42712
lfingers 7.12502
lthumb -17.4036 26.8138
rfemur 1.69251 25.7007 24.4388
rtibia 1.26196
rfoot -12.9053 -20.1324
rtoes -2.85425
lfemur 11.2098 -39.7171 -17.3408
ltibia -4.29612
lfoot -16.9031 49.8344
ltoes 7.49402
809
root -0.384598 17.561 7.957 4.68163 -4.60398 -7.85097
lowerback -1.63282 2.33786 4.59105
upperback -10.2776 3.47583 1.86923
thorax -9.8391 1.41156 -0.797481
lowerneck -13.9981 -3.58055 0.392347
upperneck 28.9906 -7.39684 6.54223
head 12.1287 -2.45163 1.31209
rclavicle 1.21259e-014 -1.19271e-015
rhumerus 23.5684 64.0669 -38.8525
rradius 111.942
rwrist -16.1286
rhand 33.0412 -37.339
rfingers 7.12502
rthumb 56.4183 -774.399
lclavicle 1.21259e-014 -1.19271e-015
lhumerus -30.4688 -43.578 93.3551
lradius 100.417
lwrist 44.0815
lhand -44.666 -2.73626
lfingers 7.12502
lthumb -17.4623 26.4994
rfemur 1.99175 25.493 24.5324
rtibia 1.3122
rfoot -13.073 -20.243
rtoes -2.77314
lfemur 11.17 -39.2378 -17.2744
ltibia -4.21414
lfoot -15.7419 49.2163
ltoes 5.7701
810
root -0.389412 17.5573 7.96525 4.45057 -4.32735 -7.80709
lowerback -1.65053 2.3562 4.25527
upperback -10.2451 3.48791 1.89243
thorax -9.80816 1.44945 -0.587224
lowerneck -13.6966 -3.77863 -0.218229
upperneck 28.9456 -7.63258 6.94358
head 12.1017 -2.58258 1.5374
rclavicle 5.1684e-015 1.15295e-014
rhumerus 21.802 67.2157 -38.9752
rradius 110.125
rwrist -16.4925
rhand 39.0599 -38.3749
rfingers 7.12502
rthumb 61.6114 -770.344
lclavicle 5.1684e-015 1.15295e-014
lhumerus -30.0523 -43.5053 93.2845
lradius 100.583
lwrist 43.9583
lhand -44.5343 -2.90875
lfingers 7.12502
lthumb -17.3355 26.3381
rfemur 2.28267 25.2229 24.6152
rtibia 1.34492
rfoot -13.1691 -20.2645
rtoes -3.00629
lfemur 11.2597 -38.9409 -17.3031
ltibia -4.16344
lfoot -15.2628 48.7295
ltoes 5.06535
